<svg xmlns="http://www.w3.org/2000/svg" xmlns:xlink="http://www.w3.org/1999/xlink" width="500" zoomAndPan="magnify" viewBox="0 0 375 374.999991" height="500" preserveAspectRatio="xMidYMid meet" version="1.0"><defs><g/></defs><path fill="#4c4ed7" d="M 187.5 0 C 83.945312 0 0 83.945312 0 187.5 C 0 291.054688 83.945312 375 187.5 375 C 291.054688 375 375 291.054688 375 187.5 C 375 83.945312 291.054688 0 187.5 0 " fill-opacity="1" fill-rule="nonzero"/><g fill="#000000" fill-opacity="1"><g transform="translate(187.499992, 246.949993)"><g/></g></g><g fill="#ffffff" fill-opacity="1"><g transform="translate(89.063334, 290.374668)"><g><path d="M 12 0 L 110.398438 0 C 173.101562 0 215.101562 -45.300781 215.398438 -105.300781 C 215.398438 -165.300781 172.800781 -210.601562 110.398438 -210.601562 L 12 -210.601562 Z M 54.601562 -35.398438 L 54.601562 -174.601562 L 111 -174.601562 C 149.398438 -174.601562 173.699219 -143.101562 173.699219 -103.800781 C 173.699219 -64.800781 148.800781 -35.398438 111 -35.398438 Z M 54.601562 -35.398438 "/></g></g></g></svg>