<svg xmlns="http://www.w3.org/2000/svg" xmlns:xlink="http://www.w3.org/1999/xlink" width="500" zoomAndPan="magnify" viewBox="0 0 375 474.999991" height="500" preserveAspectRatio="xMidYMid meet" version="1.0"><defs><g/></defs><g fill="#ff3873" fill-opacity="0.302"><g transform="translate(25.221375, 263.128087)"><g><path d="M 135.601562 -42.964844 C 135.058594 -43.144531 134.511719 -43.328125 133.96875 -43.328125 C 132.519531 -43.328125 131.25 -42.421875 130.523438 -40.96875 C 121.460938 -19.578125 108.769531 -2.902344 87.921875 4.167969 L 95.535156 -17.765625 C 98.980469 -27.738281 102.246094 -36.4375 105.144531 -44.777344 L 118.558594 -80.492188 C 119.464844 -82.847656 118.015625 -85.566406 114.933594 -85.566406 C 113.300781 -85.566406 112.035156 -85.023438 111.308594 -82.847656 L 109.496094 -77.953125 C 102.789062 -60.367188 94.628906 -42.78125 84.839844 -28.824219 C 74.6875 -13.957031 62.90625 -3.625 49.492188 -3.625 C 37.34375 -4.167969 30.457031 -10.152344 30.457031 -24.835938 C 30.457031 -33.898438 33.898438 -48.585938 38.070312 -60.730469 C 41.152344 -60.367188 43.328125 -60.1875 46.046875 -60.1875 C 78.316406 -60.1875 111.128906 -77.769531 112.394531 -108.226562 C 112.394531 -123.816406 102.246094 -134.152344 86.835938 -134.152344 C 66.167969 -134.152344 46.769531 -108.226562 33.175781 -69.25 C 18.128906 -72.515625 7.613281 -81.578125 7.613281 -97.710938 C 7.613281 -103.695312 9.0625 -109.675781 11.421875 -115.296875 C 13.234375 -119.828125 15.773438 -124.179688 18.855469 -127.625 C 19.578125 -128.347656 19.761719 -129.253906 19.761719 -130.164062 C 19.761719 -131.25 19.398438 -132.335938 18.492188 -133.0625 C 17.765625 -133.605469 16.859375 -133.96875 15.953125 -133.96875 C 14.867188 -133.96875 13.777344 -133.605469 13.050781 -132.699219 C 9.609375 -128.53125 6.527344 -123.636719 4.351562 -118.199219 C 1.632812 -111.488281 0 -104.417969 0 -97.351562 C 0 -78.859375 11.964844 -66.351562 30.457031 -62 C 26.648438 -50.398438 22.84375 -35.351562 22.84375 -24.835938 C 22.84375 -7.433594 31.363281 3.445312 49.492188 3.988281 C 64.539062 3.988281 77.410156 -5.800781 88.464844 -20.484375 L 78.859375 6.890625 C 73.964844 8.15625 69.070312 9.0625 64.539062 9.789062 C 42.78125 13.777344 33.898438 22.117188 33.898438 33.539062 C 33.898438 44.234375 40.96875 51.304688 51.847656 51.121094 C 64.898438 50.941406 76.140625 38.070312 84.839844 13.234375 C 111.308594 5.4375 126.355469 -11.421875 137.59375 -37.886719 C 137.777344 -38.433594 137.957031 -38.976562 137.957031 -39.519531 C 137.957031 -40.96875 137.050781 -42.238281 135.601562 -42.964844 Z M 40.789062 -67.980469 C 53.296875 -103.152344 69.613281 -126.535156 86.835938 -126.535156 C 97.53125 -126.535156 104.78125 -119.285156 104.78125 -108.226562 C 104.78125 -82.664062 68.707031 -64.539062 40.789062 -67.980469 Z M 75.957031 15.410156 C 69.976562 33.71875 61.636719 43.328125 51.847656 43.507812 C 45.683594 43.691406 41.515625 39.703125 41.515625 33.355469 C 42.238281 25.015625 49.308594 20.304688 65.988281 17.402344 C 69.25 16.859375 72.515625 16.132812 75.957031 15.410156 Z M 75.957031 15.410156 "/></g></g></g><g fill="#ff3873" fill-opacity="0.302"><g transform="translate(152.65728, 263.128087)"><g><path d="M 81.035156 -38.25 C 82.121094 -40.789062 80.128906 -43.507812 77.410156 -43.507812 C 75.957031 -43.507812 74.507812 -42.601562 73.964844 -41.152344 C 67.617188 -26.105469 61.273438 -19.214844 53.660156 -19.214844 C 49.492188 -19.214844 46.410156 -20.484375 44.414062 -23.023438 C 52.753906 -37.164062 58.554688 -54.929688 58.554688 -66.351562 C 58.554688 -77.226562 52.390625 -85.386719 40.425781 -85.746094 C 31.363281 -85.746094 22.480469 -79.402344 14.867188 -66.710938 C 8.882812 -56.921875 -0.542969 -39.339844 -0.542969 -18.308594 C -0.542969 -7.796875 3.445312 0 15.226562 0 C 23.929688 0 33.175781 -7.433594 39.882812 -16.496094 C 43.871094 -13.234375 48.585938 -11.601562 53.660156 -11.601562 C 64.539062 -11.601562 73.058594 -19.941406 81.035156 -38.25 Z M 38.976562 -43.507812 C 37.164062 -43.507812 35.53125 -42.421875 35.167969 -40.609375 C 33.898438 -36.074219 33.539062 -28.097656 35.53125 -23.386719 C 29.550781 -14.867188 21.933594 -7.613281 15.226562 -7.613281 C 9.425781 -7.613281 7.25 -12.144531 7.25 -18.671875 C 7.25 -37.34375 16.859375 -54.929688 21.574219 -62.722656 C 26.832031 -71.789062 33.355469 -78.132812 40.246094 -78.132812 C 46.410156 -78.132812 50.941406 -74.144531 50.941406 -66.53125 C 50.941406 -58.191406 47.496094 -45.683594 41.875 -34.445312 C 42.058594 -35.714844 42.058594 -37.164062 42.601562 -38.613281 C 43.328125 -41.152344 41.515625 -43.507812 38.976562 -43.507812 Z M 38.976562 -43.507812 "/></g></g></g><g fill="#ff3873" fill-opacity="0.302"><g transform="translate(223.535572, 263.128087)"><g><path d="M 81.035156 -43.144531 C 80.492188 -43.328125 79.945312 -43.507812 79.402344 -43.507812 C 77.953125 -43.507812 76.503906 -42.601562 75.957031 -41.152344 C 65.625 -17.945312 58.554688 -7.613281 49.851562 -7.613281 C 46.046875 -7.613281 44.414062 -9.96875 44.414062 -15.226562 C 44.414062 -20.121094 48.585938 -34.804688 55.472656 -53.480469 C 58.191406 -60.730469 61.636719 -70.519531 65.625 -81.035156 C 66.53125 -83.390625 64.71875 -86.109375 61.816406 -86.109375 C 60.367188 -86.109375 58.917969 -85.203125 58.375 -83.753906 C 48.945312 -58.011719 42.238281 -38.792969 35.894531 -26.105469 C 29.910156 -13.777344 22.480469 -7.613281 15.046875 -7.613281 C 8.519531 -7.613281 5.074219 -11.421875 5.074219 -18.855469 C 5.074219 -26.105469 7.070312 -29.910156 26.285156 -81.035156 C 27.191406 -83.390625 25.742188 -86.109375 22.660156 -86.109375 C 21.210938 -86.109375 19.761719 -85.203125 19.214844 -83.753906 C 1.8125 -38.613281 -2.539062 -27.917969 -2.539062 -18.855469 C -2.539062 -6.527344 3.445312 0 14.867188 0 L 15.046875 0 C 23.203125 0 31.542969 -5.4375 36.800781 -12.871094 C 37.886719 -4.894531 41.875 0 49.851562 0 C 62 0 71.0625 -11.058594 82.847656 -38.070312 C 83.027344 -38.613281 83.210938 -39.15625 83.210938 -39.703125 C 83.210938 -41.152344 82.304688 -42.421875 81.035156 -43.144531 Z M 81.035156 -43.144531 "/></g></g></g><g fill="#ff3873" fill-opacity="0.302"><g transform="translate(296.226606, 263.128087)"><g><path d="M 77.046875 -43.144531 C 76.503906 -43.328125 75.957031 -43.507812 75.414062 -43.507812 C 73.964844 -43.507812 72.695312 -42.601562 71.96875 -41.152344 C 69.070312 -31 60.730469 -19.214844 51.121094 -19.214844 C 47.859375 -19.214844 44.777344 -20.484375 42.601562 -22.84375 C 49.128906 -32.632812 56.5625 -52.933594 56.5625 -65.445312 C 56.5625 -76.683594 52.753906 -86.109375 41.332031 -86.109375 C 34.625 -86.109375 28.824219 -82.484375 23.75 -77.226562 L 25.199219 -81.035156 C 26.105469 -83.390625 24.292969 -86.109375 21.574219 -86.109375 C 19.941406 -86.109375 18.492188 -85.203125 17.945312 -83.570312 L 16.859375 -80.671875 C 14.683594 -75.050781 4.167969 -45.863281 -6.164062 -17.585938 L -26.46875 39.15625 C -27.375 41.515625 -25.5625 44.234375 -22.84375 44.234375 C -21.210938 44.234375 -19.761719 43.328125 -19.214844 41.695312 C -17.402344 36.257812 -9.96875 15.589844 -1.8125 -7.070312 C 0.179688 -2.175781 4.351562 0.179688 11.238281 0.542969 C 21.753906 0.90625 31 -6.34375 38.433594 -16.316406 C 41.152344 -13.597656 45.683594 -11.601562 50.941406 -11.601562 C 63.449219 -11.601562 75.234375 -24.835938 79.039062 -38.25 C 79.222656 -38.792969 79.402344 -39.15625 79.402344 -39.703125 C 79.402344 -41.152344 78.496094 -42.601562 77.046875 -43.144531 Z M 36.980469 -43.507812 C 35.351562 -43.507812 33.71875 -42.421875 33.355469 -40.609375 C 31.90625 -35.53125 31.363281 -28.460938 33.71875 -23.023438 C 27.554688 -13.597656 19.761719 -6.890625 11.421875 -7.070312 C 6.34375 -7.25 4.53125 -10.152344 4.53125 -16.496094 C 4.53125 -22.480469 5.800781 -24.835938 8.519531 -32.449219 C 15.773438 -50.757812 26.832031 -78.496094 41.695312 -78.496094 C 47.132812 -78.496094 48.765625 -73.421875 48.765625 -65.804688 C 48.765625 -56.742188 45.140625 -44.957031 39.882812 -33.898438 C 40.0625 -35.351562 40.246094 -36.980469 40.789062 -38.613281 C 41.332031 -41.152344 39.519531 -43.507812 36.980469 -43.507812 Z M 36.980469 -43.507812 "/></g></g></g><g fill="#ff3873" fill-opacity="0.502"><g transform="translate(21.385103, 261.173414)"><g><path d="M 135.601562 -42.964844 C 135.058594 -43.144531 134.511719 -43.328125 133.96875 -43.328125 C 132.519531 -43.328125 131.25 -42.421875 130.523438 -40.96875 C 121.460938 -19.578125 108.769531 -2.902344 87.921875 4.167969 L 95.535156 -17.765625 C 98.980469 -27.738281 102.246094 -36.4375 105.144531 -44.777344 L 118.558594 -80.492188 C 119.464844 -82.847656 118.015625 -85.566406 114.933594 -85.566406 C 113.300781 -85.566406 112.035156 -85.023438 111.308594 -82.847656 L 109.496094 -77.953125 C 102.789062 -60.367188 94.628906 -42.78125 84.839844 -28.824219 C 74.6875 -13.957031 62.90625 -3.625 49.492188 -3.625 C 37.34375 -4.167969 30.457031 -10.152344 30.457031 -24.835938 C 30.457031 -33.898438 33.898438 -48.585938 38.070312 -60.730469 C 41.152344 -60.367188 43.328125 -60.1875 46.046875 -60.1875 C 78.316406 -60.1875 111.128906 -77.769531 112.394531 -108.226562 C 112.394531 -123.816406 102.246094 -134.152344 86.835938 -134.152344 C 66.167969 -134.152344 46.769531 -108.226562 33.175781 -69.25 C 18.128906 -72.515625 7.613281 -81.578125 7.613281 -97.710938 C 7.613281 -103.695312 9.0625 -109.675781 11.421875 -115.296875 C 13.234375 -119.828125 15.773438 -124.179688 18.855469 -127.625 C 19.578125 -128.347656 19.761719 -129.253906 19.761719 -130.164062 C 19.761719 -131.25 19.398438 -132.335938 18.492188 -133.0625 C 17.765625 -133.605469 16.859375 -133.96875 15.953125 -133.96875 C 14.867188 -133.96875 13.777344 -133.605469 13.050781 -132.699219 C 9.609375 -128.53125 6.527344 -123.636719 4.351562 -118.199219 C 1.632812 -111.488281 0 -104.417969 0 -97.351562 C 0 -78.859375 11.964844 -66.351562 30.457031 -62 C 26.648438 -50.398438 22.84375 -35.351562 22.84375 -24.835938 C 22.84375 -7.433594 31.363281 3.445312 49.492188 3.988281 C 64.539062 3.988281 77.410156 -5.800781 88.464844 -20.484375 L 78.859375 6.890625 C 73.964844 8.15625 69.070312 9.0625 64.539062 9.789062 C 42.78125 13.777344 33.898438 22.117188 33.898438 33.539062 C 33.898438 44.234375 40.96875 51.304688 51.847656 51.121094 C 64.898438 50.941406 76.140625 38.070312 84.839844 13.234375 C 111.308594 5.4375 126.355469 -11.421875 137.59375 -37.886719 C 137.777344 -38.433594 137.957031 -38.976562 137.957031 -39.519531 C 137.957031 -40.96875 137.050781 -42.238281 135.601562 -42.964844 Z M 40.789062 -67.980469 C 53.296875 -103.152344 69.613281 -126.535156 86.835938 -126.535156 C 97.53125 -126.535156 104.78125 -119.285156 104.78125 -108.226562 C 104.78125 -82.664062 68.707031 -64.539062 40.789062 -67.980469 Z M 75.957031 15.410156 C 69.976562 33.71875 61.636719 43.328125 51.847656 43.507812 C 45.683594 43.691406 41.515625 39.703125 41.515625 33.355469 C 42.238281 25.015625 49.308594 20.304688 65.988281 17.402344 C 69.25 16.859375 72.515625 16.132812 75.957031 15.410156 Z M 75.957031 15.410156 "/></g></g></g><g fill="#ff3873" fill-opacity="0.502"><g transform="translate(148.821008, 261.173414)"><g><path d="M 81.035156 -38.25 C 82.121094 -40.789062 80.128906 -43.507812 77.410156 -43.507812 C 75.957031 -43.507812 74.507812 -42.601562 73.964844 -41.152344 C 67.617188 -26.105469 61.273438 -19.214844 53.660156 -19.214844 C 49.492188 -19.214844 46.410156 -20.484375 44.414062 -23.023438 C 52.753906 -37.164062 58.554688 -54.929688 58.554688 -66.351562 C 58.554688 -77.226562 52.390625 -85.386719 40.425781 -85.746094 C 31.363281 -85.746094 22.480469 -79.402344 14.867188 -66.710938 C 8.882812 -56.921875 -0.542969 -39.339844 -0.542969 -18.308594 C -0.542969 -7.796875 3.445312 0 15.226562 0 C 23.929688 0 33.175781 -7.433594 39.882812 -16.496094 C 43.871094 -13.234375 48.585938 -11.601562 53.660156 -11.601562 C 64.539062 -11.601562 73.058594 -19.941406 81.035156 -38.25 Z M 38.976562 -43.507812 C 37.164062 -43.507812 35.53125 -42.421875 35.167969 -40.609375 C 33.898438 -36.074219 33.539062 -28.097656 35.53125 -23.386719 C 29.550781 -14.867188 21.933594 -7.613281 15.226562 -7.613281 C 9.425781 -7.613281 7.25 -12.144531 7.25 -18.671875 C 7.25 -37.34375 16.859375 -54.929688 21.574219 -62.722656 C 26.832031 -71.789062 33.355469 -78.132812 40.246094 -78.132812 C 46.410156 -78.132812 50.941406 -74.144531 50.941406 -66.53125 C 50.941406 -58.191406 47.496094 -45.683594 41.875 -34.445312 C 42.058594 -35.714844 42.058594 -37.164062 42.601562 -38.613281 C 43.328125 -41.152344 41.515625 -43.507812 38.976562 -43.507812 Z M 38.976562 -43.507812 "/></g></g></g><g fill="#ff3873" fill-opacity="0.502"><g transform="translate(219.6993, 261.173414)"><g><path d="M 81.035156 -43.144531 C 80.492188 -43.328125 79.945312 -43.507812 79.402344 -43.507812 C 77.953125 -43.507812 76.503906 -42.601562 75.957031 -41.152344 C 65.625 -17.945312 58.554688 -7.613281 49.851562 -7.613281 C 46.046875 -7.613281 44.414062 -9.96875 44.414062 -15.226562 C 44.414062 -20.121094 48.585938 -34.804688 55.472656 -53.480469 C 58.191406 -60.730469 61.636719 -70.519531 65.625 -81.035156 C 66.53125 -83.390625 64.71875 -86.109375 61.816406 -86.109375 C 60.367188 -86.109375 58.917969 -85.203125 58.375 -83.753906 C 48.945312 -58.011719 42.238281 -38.792969 35.894531 -26.105469 C 29.910156 -13.777344 22.480469 -7.613281 15.046875 -7.613281 C 8.519531 -7.613281 5.074219 -11.421875 5.074219 -18.855469 C 5.074219 -26.105469 7.070312 -29.910156 26.285156 -81.035156 C 27.191406 -83.390625 25.742188 -86.109375 22.660156 -86.109375 C 21.210938 -86.109375 19.761719 -85.203125 19.214844 -83.753906 C 1.8125 -38.613281 -2.539062 -27.917969 -2.539062 -18.855469 C -2.539062 -6.527344 3.445312 0 14.867188 0 L 15.046875 0 C 23.203125 0 31.542969 -5.4375 36.800781 -12.871094 C 37.886719 -4.894531 41.875 0 49.851562 0 C 62 0 71.0625 -11.058594 82.847656 -38.070312 C 83.027344 -38.613281 83.210938 -39.15625 83.210938 -39.703125 C 83.210938 -41.152344 82.304688 -42.421875 81.035156 -43.144531 Z M 81.035156 -43.144531 "/></g></g></g><g fill="#ff3873" fill-opacity="0.502"><g transform="translate(292.390335, 261.173414)"><g><path d="M 77.046875 -43.144531 C 76.503906 -43.328125 75.957031 -43.507812 75.414062 -43.507812 C 73.964844 -43.507812 72.695312 -42.601562 71.96875 -41.152344 C 69.070312 -31 60.730469 -19.214844 51.121094 -19.214844 C 47.859375 -19.214844 44.777344 -20.484375 42.601562 -22.84375 C 49.128906 -32.632812 56.5625 -52.933594 56.5625 -65.445312 C 56.5625 -76.683594 52.753906 -86.109375 41.332031 -86.109375 C 34.625 -86.109375 28.824219 -82.484375 23.75 -77.226562 L 25.199219 -81.035156 C 26.105469 -83.390625 24.292969 -86.109375 21.574219 -86.109375 C 19.941406 -86.109375 18.492188 -85.203125 17.945312 -83.570312 L 16.859375 -80.671875 C 14.683594 -75.050781 4.167969 -45.863281 -6.164062 -17.585938 L -26.46875 39.15625 C -27.375 41.515625 -25.5625 44.234375 -22.84375 44.234375 C -21.210938 44.234375 -19.761719 43.328125 -19.214844 41.695312 C -17.402344 36.257812 -9.96875 15.589844 -1.8125 -7.070312 C 0.179688 -2.175781 4.351562 0.179688 11.238281 0.542969 C 21.753906 0.90625 31 -6.34375 38.433594 -16.316406 C 41.152344 -13.597656 45.683594 -11.601562 50.941406 -11.601562 C 63.449219 -11.601562 75.234375 -24.835938 79.039062 -38.25 C 79.222656 -38.792969 79.402344 -39.15625 79.402344 -39.703125 C 79.402344 -41.152344 78.496094 -42.601562 77.046875 -43.144531 Z M 36.980469 -43.507812 C 35.351562 -43.507812 33.71875 -42.421875 33.355469 -40.609375 C 31.90625 -35.53125 31.363281 -28.460938 33.71875 -23.023438 C 27.554688 -13.597656 19.761719 -6.890625 11.421875 -7.070312 C 6.34375 -7.25 4.53125 -10.152344 4.53125 -16.496094 C 4.53125 -22.480469 5.800781 -24.835938 8.519531 -32.449219 C 15.773438 -50.757812 26.832031 -78.496094 41.695312 -78.496094 C 47.132812 -78.496094 48.765625 -73.421875 48.765625 -65.804688 C 48.765625 -56.742188 45.140625 -44.957031 39.882812 -33.898438 C 40.0625 -35.351562 40.246094 -36.980469 40.789062 -38.613281 C 41.332031 -41.152344 39.519531 -43.507812 36.980469 -43.507812 Z M 36.980469 -43.507812 "/></g></g></g><g fill="#5e17eb" fill-opacity="1"><g transform="translate(17.548831, 259.218734)"><g><path d="M 135.601562 -42.964844 C 135.058594 -43.144531 134.511719 -43.328125 133.96875 -43.328125 C 132.519531 -43.328125 131.25 -42.421875 130.523438 -40.96875 C 121.460938 -19.578125 108.769531 -2.902344 87.921875 4.167969 L 95.535156 -17.765625 C 98.980469 -27.738281 102.246094 -36.4375 105.144531 -44.777344 L 118.558594 -80.492188 C 119.464844 -82.847656 118.015625 -85.566406 114.933594 -85.566406 C 113.300781 -85.566406 112.035156 -85.023438 111.308594 -82.847656 L 109.496094 -77.953125 C 102.789062 -60.367188 94.628906 -42.78125 84.839844 -28.824219 C 74.6875 -13.957031 62.90625 -3.625 49.492188 -3.625 C 37.34375 -4.167969 30.457031 -10.152344 30.457031 -24.835938 C 30.457031 -33.898438 33.898438 -48.585938 38.070312 -60.730469 C 41.152344 -60.367188 43.328125 -60.1875 46.046875 -60.1875 C 78.316406 -60.1875 111.128906 -77.769531 112.394531 -108.226562 C 112.394531 -123.816406 102.246094 -134.152344 86.835938 -134.152344 C 66.167969 -134.152344 46.769531 -108.226562 33.175781 -69.25 C 18.128906 -72.515625 7.613281 -81.578125 7.613281 -97.710938 C 7.613281 -103.695312 9.0625 -109.675781 11.421875 -115.296875 C 13.234375 -119.828125 15.773438 -124.179688 18.855469 -127.625 C 19.578125 -128.347656 19.761719 -129.253906 19.761719 -130.164062 C 19.761719 -131.25 19.398438 -132.335938 18.492188 -133.0625 C 17.765625 -133.605469 16.859375 -133.96875 15.953125 -133.96875 C 14.867188 -133.96875 13.777344 -133.605469 13.050781 -132.699219 C 9.609375 -128.53125 6.527344 -123.636719 4.351562 -118.199219 C 1.632812 -111.488281 0 -104.417969 0 -97.351562 C 0 -78.859375 11.964844 -66.351562 30.457031 -62 C 26.648438 -50.398438 22.84375 -35.351562 22.84375 -24.835938 C 22.84375 -7.433594 31.363281 3.445312 49.492188 3.988281 C 64.539062 3.988281 77.410156 -5.800781 88.464844 -20.484375 L 78.859375 6.890625 C 73.964844 8.15625 69.070312 9.0625 64.539062 9.789062 C 42.78125 13.777344 33.898438 22.117188 33.898438 33.539062 C 33.898438 44.234375 40.96875 51.304688 51.847656 51.121094 C 64.898438 50.941406 76.140625 38.070312 84.839844 13.234375 C 111.308594 5.4375 126.355469 -11.421875 137.59375 -37.886719 C 137.777344 -38.433594 137.957031 -38.976562 137.957031 -39.519531 C 137.957031 -40.96875 137.050781 -42.238281 135.601562 -42.964844 Z M 40.789062 -67.980469 C 53.296875 -103.152344 69.613281 -126.535156 86.835938 -126.535156 C 97.53125 -126.535156 104.78125 -119.285156 104.78125 -108.226562 C 104.78125 -82.664062 68.707031 -64.539062 40.789062 -67.980469 Z M 75.957031 15.410156 C 69.976562 33.71875 61.636719 43.328125 51.847656 43.507812 C 45.683594 43.691406 41.515625 39.703125 41.515625 33.355469 C 42.238281 25.015625 49.308594 20.304688 65.988281 17.402344 C 69.25 16.859375 72.515625 16.132812 75.957031 15.410156 Z M 75.957031 15.410156 "/></g></g></g><g fill="#5e17eb" fill-opacity="1"><g transform="translate(144.984737, 259.218734)"><g><path d="M 81.035156 -38.25 C 82.121094 -40.789062 80.128906 -43.507812 77.410156 -43.507812 C 75.957031 -43.507812 74.507812 -42.601562 73.964844 -41.152344 C 67.617188 -26.105469 61.273438 -19.214844 53.660156 -19.214844 C 49.492188 -19.214844 46.410156 -20.484375 44.414062 -23.023438 C 52.753906 -37.164062 58.554688 -54.929688 58.554688 -66.351562 C 58.554688 -77.226562 52.390625 -85.386719 40.425781 -85.746094 C 31.363281 -85.746094 22.480469 -79.402344 14.867188 -66.710938 C 8.882812 -56.921875 -0.542969 -39.339844 -0.542969 -18.308594 C -0.542969 -7.796875 3.445312 0 15.226562 0 C 23.929688 0 33.175781 -7.433594 39.882812 -16.496094 C 43.871094 -13.234375 48.585938 -11.601562 53.660156 -11.601562 C 64.539062 -11.601562 73.058594 -19.941406 81.035156 -38.25 Z M 38.976562 -43.507812 C 37.164062 -43.507812 35.53125 -42.421875 35.167969 -40.609375 C 33.898438 -36.074219 33.539062 -28.097656 35.53125 -23.386719 C 29.550781 -14.867188 21.933594 -7.613281 15.226562 -7.613281 C 9.425781 -7.613281 7.25 -12.144531 7.25 -18.671875 C 7.25 -37.34375 16.859375 -54.929688 21.574219 -62.722656 C 26.832031 -71.789062 33.355469 -78.132812 40.246094 -78.132812 C 46.410156 -78.132812 50.941406 -74.144531 50.941406 -66.53125 C 50.941406 -58.191406 47.496094 -45.683594 41.875 -34.445312 C 42.058594 -35.714844 42.058594 -37.164062 42.601562 -38.613281 C 43.328125 -41.152344 41.515625 -43.507812 38.976562 -43.507812 Z M 38.976562 -43.507812 "/></g></g></g><g fill="#5e17eb" fill-opacity="1"><g transform="translate(215.863028, 259.218734)"><g><path d="M 81.035156 -43.144531 C 80.492188 -43.328125 79.945312 -43.507812 79.402344 -43.507812 C 77.953125 -43.507812 76.503906 -42.601562 75.957031 -41.152344 C 65.625 -17.945312 58.554688 -7.613281 49.851562 -7.613281 C 46.046875 -7.613281 44.414062 -9.96875 44.414062 -15.226562 C 44.414062 -20.121094 48.585938 -34.804688 55.472656 -53.480469 C 58.191406 -60.730469 61.636719 -70.519531 65.625 -81.035156 C 66.53125 -83.390625 64.71875 -86.109375 61.816406 -86.109375 C 60.367188 -86.109375 58.917969 -85.203125 58.375 -83.753906 C 48.945312 -58.011719 42.238281 -38.792969 35.894531 -26.105469 C 29.910156 -13.777344 22.480469 -7.613281 15.046875 -7.613281 C 8.519531 -7.613281 5.074219 -11.421875 5.074219 -18.855469 C 5.074219 -26.105469 7.070312 -29.910156 26.285156 -81.035156 C 27.191406 -83.390625 25.742188 -86.109375 22.660156 -86.109375 C 21.210938 -86.109375 19.761719 -85.203125 19.214844 -83.753906 C 1.8125 -38.613281 -2.539062 -27.917969 -2.539062 -18.855469 C -2.539062 -6.527344 3.445312 0 14.867188 0 L 15.046875 0 C 23.203125 0 31.542969 -5.4375 36.800781 -12.871094 C 37.886719 -4.894531 41.875 0 49.851562 0 C 62 0 71.0625 -11.058594 82.847656 -38.070312 C 83.027344 -38.613281 83.210938 -39.15625 83.210938 -39.703125 C 83.210938 -41.152344 82.304688 -42.421875 81.035156 -43.144531 Z M 81.035156 -43.144531 "/></g></g></g><g fill="#5e17eb" fill-opacity="1"><g transform="translate(288.554063, 259.218734)"><g><path d="M 77.046875 -43.144531 C 76.503906 -43.328125 75.957031 -43.507812 75.414062 -43.507812 C 73.964844 -43.507812 72.695312 -42.601562 71.96875 -41.152344 C 69.070312 -31 60.730469 -19.214844 51.121094 -19.214844 C 47.859375 -19.214844 44.777344 -20.484375 42.601562 -22.84375 C 49.128906 -32.632812 56.5625 -52.933594 56.5625 -65.445312 C 56.5625 -76.683594 52.753906 -86.109375 41.332031 -86.109375 C 34.625 -86.109375 28.824219 -82.484375 23.75 -77.226562 L 25.199219 -81.035156 C 26.105469 -83.390625 24.292969 -86.109375 21.574219 -86.109375 C 19.941406 -86.109375 18.492188 -85.203125 17.945312 -83.570312 L 16.859375 -80.671875 C 14.683594 -75.050781 4.167969 -45.863281 -6.164062 -17.585938 L -26.46875 39.15625 C -27.375 41.515625 -25.5625 44.234375 -22.84375 44.234375 C -21.210938 44.234375 -19.761719 43.328125 -19.214844 41.695312 C -17.402344 36.257812 -9.96875 15.589844 -1.8125 -7.070312 C 0.179688 -2.175781 4.351562 0.179688 11.238281 0.542969 C 21.753906 0.90625 31 -6.34375 38.433594 -16.316406 C 41.152344 -13.597656 45.683594 -11.601562 50.941406 -11.601562 C 63.449219 -11.601562 75.234375 -24.835938 79.039062 -38.25 C 79.222656 -38.792969 79.402344 -39.15625 79.402344 -39.703125 C 79.402344 -41.152344 78.496094 -42.601562 77.046875 -43.144531 Z M 36.980469 -43.507812 C 35.351562 -43.507812 33.71875 -42.421875 33.355469 -40.609375 C 31.90625 -35.53125 31.363281 -28.460938 33.71875 -23.023438 C 27.554688 -13.597656 19.761719 -6.890625 11.421875 -7.070312 C 6.34375 -7.25 4.53125 -10.152344 4.53125 -16.496094 C 4.53125 -22.480469 5.800781 -24.835938 8.519531 -32.449219 C 15.773438 -50.757812 26.832031 -78.496094 41.695312 -78.496094 C 47.132812 -78.496094 48.765625 -73.421875 48.765625 -65.804688 C 48.765625 -56.742188 45.140625 -44.957031 39.882812 -33.898438 C 40.0625 -35.351562 40.246094 -36.980469 40.789062 -38.613281 C 41.332031 -41.152344 39.519531 -43.507812 36.980469 -43.507812 Z M 36.980469 -43.507812 "/></g></g></g></svg>